<?xml version="1.0" encoding="utf-8"?>
<!-- Generator: Adobe Illustrator 19.1.0, SVG Export Plug-In . SVG Version: 6.00 Build 0)  -->
<svg version="1.1" id="Layer_1" xmlns="http://www.w3.org/2000/svg" xmlns:xlink="http://www.w3.org/1999/xlink" x="0px" y="0px"
	 viewBox="0 0 1400 699" style="enable-background:new 0 0 1400 699;" xml:space="preserve">
<style type="text/css">
	.st0{fill:#293960;}
	.st1{fill:#8BC53F;}
	.st2{fill:#BC9F77;}
	.st3{fill:#9C8156;}
	.st4{fill:#DDD1B4;}
	.st5{fill:#68942F;}
	.st6{fill:#A2D165;}
	.st7{fill:none;stroke:#D73972;stroke-width:8.8508;stroke-linecap:round;stroke-linejoin:round;stroke-miterlimit:10;}
	.st8{fill:#D73972;}
	.st9{fill:#FFFFFF;stroke:#D73972;stroke-width:8.8508;stroke-linecap:round;stroke-linejoin:round;stroke-miterlimit:10;}
	.st10{fill:#FFFFFF;}
	.st11{fill:#A12B56;}
	.st12{fill:#DF608E;}
</style>
<rect class="st0" width="1400" height="699"/>
<path class="st1" d="M1220.4,449.1c-1.9,6.2-6.7,11-12.9,12.9c6.2,1.9,11,6.7,12.9,12.9c1.9-6.2,6.7-11,12.9-12.9
	C1227.1,460.1,1222.3,455.3,1220.4,449.1z"/>
<path class="st1" d="M1108.3,133.1c-1.9,6.2-6.7,11-12.9,12.9c6.2,1.9,11,6.7,12.9,12.9c1.9-6.2,6.7-11,12.9-12.9
	C1115,144.1,1110.2,139.3,1108.3,133.1z"/>
<path class="st1" d="M899.8,44.2c-1.3,4.1-4.5,7.3-8.6,8.6c4.1,1.3,7.3,4.5,8.6,8.6c1.3-4.1,4.5-7.3,8.6-8.6
	C904.3,51.5,901,48.3,899.8,44.2z"/>
<path class="st1" d="M932.1,97.7c-1.3,4.1-4.5,7.3-8.6,8.6c4.1,1.3,7.3,4.5,8.6,8.6c1.3-4.1,4.5-7.3,8.6-8.6
	C936.6,105.1,933.4,101.8,932.1,97.7z"/>
<g>
	<path class="st2" d="M1247.2,592.7L1247.2,592.7c1.6-0.4,3.5,1.2,3.5,1.2c3.4-1,4.6-3,4.6-3c-0.3-1-0.1-2.1,0.1-2.9
		c-1.7,1.1-3.5,2-3.5,2c1.3-0.8,2.6-1.9,3.6-2.9c0.1-0.1,0.2-0.2,0.3-0.3c0.1-0.1,0.1-0.1,0.2-0.2l0,0c6.7-6.3,10.9-15.2,10.9-25.1
		c0-1.7-0.1-3.4-0.4-5l0,0c-0.5-3.3,1.9-5,1.9-5c0.4-5.4-2.7-8.3-2.7-8.3c-1.5,0.2-2.8-0.2-3.8-0.7c1,2,1.4,3.8,1.4,3.8
		c-0.8-1.8-2-3.6-2.8-4.7c0,0,0,0,0,0l0,0c-5.1-7.2-13-12.4-22.1-14l0,0c0,0-0.1,0-0.2,0c-0.3,0-0.5-0.1-0.8-0.1
		c-1.1-0.2-2.9-0.6-4.3-1.4c-2.1-1.1-4.5-1.4-7.5-0.9c-2.5,0.4-4.1,1.6-6.1,3.1c-2,1.4-3.4,2.8-5,3.8l0,0c-0.7,0.4-1.4,0.9-2,1.3
		c0,0,0,0,0,0c0,0-2.2,1.6-5,2.1c-2.4,0.4-3.7,3.2-3.7,5.6c1.5-1.9,3.2-2.8,3.2-2.8c-0.7,0.7-1.4,1.6-2,2.4
		c-0.1,0.2-0.3,0.4-0.4,0.5c-0.4,0.6-0.7,1-0.7,1l0,0c-3.7,5.5-5.9,12.2-5.9,19.3c0,19,15.4,34.5,34.5,34.5
		C1237.7,596,1242.7,594.8,1247.2,592.7z"/>
	<path class="st3" d="M1253.4,563.8c3.9,3.1,4,9.7,0,14.7c-1,1.2-2.1,2.3-3.3,3.1c3.1-0.2,6.4-2,8.8-5.1c3.9-5,3.9-11.6,0-14.7
		c-3-2.3-7.3-2-11,0.5C1249.9,562.2,1251.8,562.6,1253.4,563.8z"/>
	<path class="st4" d="M1244.6,565.4c-3.9,5-3.9,11.6,0,14.7c1.5,1.2,3.5,1.7,5.4,1.5c1.2-0.8,2.3-1.8,3.3-3.1c3.9-5,3.9-11.6,0-14.7
		c-1.5-1.2-3.5-1.7-5.4-1.5C1246.7,563.1,1245.6,564.1,1244.6,565.4z"/>
	<path class="st3" d="M1212.6,547.8c5.2-1.1,9.2,3.1,8.9,9.4c-0.1,1.6-0.4,3.1-0.9,4.6c2.5-2.6,4.2-6.4,4.4-10.3
		c0.3-6.4-3.7-10.6-8.9-9.4c-3.9,0.9-7.4,4.5-9,9C1208.7,549.5,1210.6,548.3,1212.6,547.8z"/>
	<path class="st4" d="M1206.2,555.7c-0.3,6.4,3.7,10.6,8.9,9.4c2-0.4,3.9-1.7,5.5-3.3c0.5-1.5,0.8-3,0.9-4.6
		c0.3-6.4-3.7-10.6-8.9-9.4c-2,0.4-3.9,1.7-5.5,3.3C1206.6,552.6,1206.3,554.1,1206.2,555.7z"/>
	
		<ellipse transform="matrix(0.2572 0.9664 -0.9664 0.2572 1457.4602 -781.908)" class="st4" cx="1237.3" cy="557.1" rx="4.2" ry="2.8"/>
	<ellipse class="st4" cx="1238" cy="531.2" rx="1.4" ry="1.1"/>
	<ellipse class="st4" cx="1212.5" cy="574.4" rx="1.5" ry="1.8"/>
	
		<ellipse transform="matrix(-0.2855 -0.9584 0.9584 -0.2855 1028.576 1948.2301)" class="st4" cx="1240.5" cy="590.7" rx="2.3" ry="2.6"/>
	<path class="st3" d="M1238,566.9c0,0-2.3,11.5,3.7,16.6C1241.7,583.5,1233.6,580.7,1238,566.9z"/>
	<g>
		<path class="st3" d="M1226.6,528.8c2.2-0.4,4.2-0.2,5.4,0.3c0.3-0.4,0.4-0.8,0.3-1.1c-0.3-1.5-3.2-2.2-6.6-1.6
			c-3.4,0.6-5.9,2.3-5.6,3.8c0.1,0.5,0.5,0.9,1.2,1.2C1222,530.4,1224.1,529.3,1226.6,528.8z"/>
		<path class="st4" d="M1226.7,531.8c2.5-0.5,4.6-1.5,5.3-2.7c-1.2-0.6-3.2-0.7-5.4-0.3c-2.5,0.5-4.6,1.5-5.3,2.7
			C1222.5,532.1,1224.5,532.2,1226.7,531.8z"/>
	</g>
	<g>
		<path class="st3" d="M1222.5,586.3c1.2,0.5,1.9,1.4,2,2.2c0.4-0.2,0.7-0.4,0.9-0.7c0.9-1.2,0.1-2.8-1.6-3.6
			c-1.8-0.8-4-0.4-4.8,0.8c-0.3,0.4-0.4,0.9-0.4,1.4C1219.6,585.8,1221.2,585.7,1222.5,586.3z"/>
		<path class="st4" d="M1220.6,588.6c1.3,0.6,2.9,0.5,4,0c-0.1-0.9-0.8-1.7-2-2.2c-1.3-0.6-2.9-0.5-4,0
			C1218.7,587.2,1219.4,588.1,1220.6,588.6z"/>
	</g>
	<g>
		<path class="st3" d="M1242.9,541.8c2.6,1,4.5,2.8,5,4.5c0.7-0.4,1.2-0.9,1.6-1.5c1.4-2.5-0.7-5.7-4.8-7.3
			c-4.1-1.6-8.5-0.9-9.9,1.6c-0.5,0.9-0.5,1.8-0.2,2.8C1236.7,540.7,1239.9,540.6,1242.9,541.8z"/>
		<path class="st4" d="M1239.7,546.4c3,1.2,6.3,1.1,8.3-0.1c-0.6-1.8-2.4-3.5-5-4.5c-3-1.2-6.3-1.1-8.3,0.1
			C1235.2,543.6,1237,545.4,1239.7,546.4z"/>
	</g>
	<path class="st3" d="M1232.4,545.2c0,0,7.6,5.7,13.5,4.9C1245.9,550.1,1238.4,553,1232.4,545.2z"/>
</g>
<g>
	<path class="st1" d="M1042.5,112.8L1042.5,112.8c1.8-0.4,3.9,1.3,3.9,1.3c3.8-1.2,5.2-3.3,5.2-3.3c-0.4-1.2-0.2-2.3,0.2-3.2
		c-1.9,1.2-3.9,2.2-3.9,2.2c1.4-0.9,2.9-2.2,4.1-3.2c0.1-0.1,0.3-0.2,0.4-0.3c0.1-0.1,0.2-0.1,0.2-0.2l0,0c7.5-7,12.2-17,12.2-28
		c0-1.9-0.1-3.8-0.4-5.6l0,0c-0.5-3.7,2.1-5.6,2.1-5.6c0.5-6.1-3.1-9.3-3.1-9.3c-1.7,0.3-3.1-0.2-4.2-0.8c1.1,2.3,1.6,4.3,1.6,4.3
		c-0.9-2-2.2-4-3.1-5.2c0,0,0,0,0,0l0,0c-5.7-8.1-14.5-13.8-24.7-15.6l0,0c0,0-0.1,0-0.3,0c-0.3,0-0.6-0.1-0.9-0.1
		c-1.2-0.2-3.3-0.7-4.8-1.5c-2.3-1.3-5.1-1.5-8.4-1c-2.8,0.4-4.6,1.8-6.8,3.4c-2.2,1.6-3.8,3.1-5.6,4.3l0,0c-0.8,0.5-1.5,1-2.3,1.5
		c0,0,0,0,0,0c0,0-2.4,1.8-5.6,2.3c-2.7,0.4-4.1,3.5-4.2,6.2c1.7-2.1,3.6-3.1,3.6-3.1c-0.8,0.8-1.6,1.8-2.3,2.7
		c-0.2,0.2-0.3,0.4-0.5,0.6c-0.5,0.6-0.8,1.1-0.8,1.1l0,0c-4.2,6.2-6.6,13.6-6.6,21.6c0,21.2,17.2,38.5,38.5,38.5
		C1032,116.5,1037.5,115.1,1042.5,112.8z"/>
	<path class="st5" d="M1049.4,80.6c4.4,3.4,4.4,10.8,0,16.4c-1.1,1.4-2.3,2.5-3.7,3.4c3.5-0.3,7.2-2.2,9.8-5.7
		c4.4-5.6,4.4-13,0-16.4c-3.3-2.6-8.2-2.2-12.3,0.5C1045.6,78.7,1047.7,79.3,1049.4,80.6z"/>
	<path class="st6" d="M1039.7,82.3c-4.4,5.6-4.4,13,0,16.4c1.7,1.3,3.9,1.9,6.1,1.7c1.3-0.9,2.6-2,3.7-3.4c4.4-5.6,4.4-13,0-16.4
		c-1.7-1.3-3.9-1.9-6.1-1.7C1042,79.8,1040.8,80.9,1039.7,82.3z"/>
	<path class="st5" d="M1003.9,62.7c5.8-1.3,10.2,3.4,9.9,10.5c-0.1,1.7-0.4,3.5-1,5.1c2.8-2.9,4.7-7.1,4.9-11.4
		c0.3-7.1-4.2-11.8-9.9-10.5c-4.4,1-8.2,5.1-10,10.1C999.6,64.5,1001.7,63.2,1003.9,62.7z"/>
	<path class="st6" d="M996.8,71.5c-0.3,7.1,4.2,11.8,9.9,10.5c2.3-0.5,4.4-1.8,6.2-3.7c0.6-1.6,0.9-3.4,1-5.1
		c0.3-7.1-4.2-11.8-9.9-10.5c-2.3,0.5-4.4,1.8-6.2,3.7C997.2,68,996.8,69.8,996.8,71.5z"/>
	<ellipse transform="matrix(0.2572 0.9664 -0.9664 0.2572 836.813 -942.5767)" class="st6" cx="1031.5" cy="73" rx="4.6" ry="3.1"/>
	<ellipse class="st6" cx="1032.2" cy="44.2" rx="1.5" ry="1.3"/>
	<ellipse class="st6" cx="1003.8" cy="92.3" rx="1.7" ry="2"/>
	
		<ellipse transform="matrix(-0.2855 -0.9584 0.9584 -0.2855 1224.6381 1134.1348)" class="st6" cx="1035.1" cy="110.6" rx="2.5" ry="2.9"/>
	<path class="st5" d="M1032.2,84c0,0-2.6,12.8,4.2,18.6C1036.4,102.5,1027.3,99.4,1032.2,84z"/>
	<g>
		<path class="st5" d="M1019.6,41.5c2.5-0.4,4.7-0.3,6.1,0.4c0.3-0.4,0.4-0.9,0.3-1.3c-0.3-1.7-3.6-2.5-7.4-1.8
			c-3.8,0.7-6.6,2.6-6.3,4.2c0.1,0.6,0.6,1,1.3,1.4C1014.5,43.2,1016.7,42,1019.6,41.5z"/>
		<path class="st6" d="M1019.7,44.9c2.8-0.5,5.1-1.7,6-3c-1.4-0.6-3.6-0.8-6.1-0.4c-2.8,0.5-5.1,1.7-6,3
			C1015,45.1,1017.2,45.3,1019.7,44.9z"/>
	</g>
	<g>
		<path class="st5" d="M1015,105.7c1.3,0.6,2.1,1.5,2.2,2.5c0.4-0.2,0.7-0.5,1-0.8c1-1.3,0.2-3.1-1.8-4c-2-0.9-4.4-0.5-5.4,0.9
			c-0.3,0.5-0.5,1-0.4,1.5C1011.8,105.1,1013.5,105,1015,105.7z"/>
		<path class="st6" d="M1012.8,108.2c1.5,0.7,3.2,0.6,4.4,0c-0.1-1-0.9-1.9-2.2-2.5c-1.5-0.7-3.2-0.6-4.4,0
			C1010.7,106.7,1011.5,107.6,1012.8,108.2z"/>
	</g>
	<g>
		<path class="st5" d="M1037.8,55.9c3,1.1,5,3.1,5.6,5.1c0.8-0.4,1.4-1,1.8-1.7c1.6-2.7-0.8-6.4-5.4-8.1c-4.5-1.8-9.5-0.9-11,1.8
			c-0.5,1-0.6,2-0.3,3.1C1030.8,54.7,1034.4,54.6,1037.8,55.9z"/>
		<path class="st6" d="M1034.1,61.1c3.4,1.3,7,1.2,9.3-0.1c-0.6-2-2.7-3.9-5.6-5.1c-3.4-1.3-7-1.2-9.3,0.1
			C1029.1,58,1031.2,60,1034.1,61.1z"/>
	</g>
	<path class="st5" d="M1026,59.8c0,0,8.5,6.3,15.1,5.5C1041.1,65.3,1032.7,68.5,1026,59.8z"/>
</g>
<path class="st1" d="M1247.4,635.6c-1.3,4.1-4.5,7.3-8.6,8.6c4.1,1.3,7.3,4.5,8.6,8.6c1.3-4.1,4.5-7.3,8.6-8.6
	C1251.9,642.9,1248.7,639.7,1247.4,635.6z"/>
<path class="st1" d="M1164.6,603c-1.3,4.1-4.5,7.3-8.6,8.6c4.1,1.3,7.3,4.5,8.6,8.6c1.3-4.1,4.5-7.3,8.6-8.6
	C1169.1,610.3,1165.8,607.1,1164.6,603z"/>
<g>
	<path class="st1" d="M430.2,371.5c-1.3,4.1-4.5,7.3-8.6,8.6c4.1,1.3,7.3,4.5,8.6,8.6c1.3-4.1,4.5-7.3,8.6-8.6
		C434.6,378.9,431.4,375.7,430.2,371.5z"/>
	<path class="st1" d="M436.5,163.1c-1.9,6.2-6.7,11-12.9,12.9c6.2,1.9,11,6.7,12.9,12.9c1.9-6.2,6.7-11,12.9-12.9
		C443.2,174.1,438.4,169.2,436.5,163.1z"/>
	<path class="st1" d="M297.3,256.6c-1.9,6.2-6.7,11-12.9,12.9c6.2,1.9,11,6.7,12.9,12.9c1.9-6.2,6.7-11,12.9-12.9
		C304,267.6,299.2,262.7,297.3,256.6z"/>
	<path class="st1" d="M297.3,528c-1.9,6.2-6.7,11-12.9,12.9c6.2,1.9,11,6.7,12.9,12.9c1.9-6.2,6.7-11,12.9-12.9
		C304,539,299.2,534.2,297.3,528z"/>
	<path class="st1" d="M429.3,520.9c-1.3,4.1-4.5,7.3-8.6,8.6c4.1,1.3,7.3,4.5,8.6,8.6c1.3-4.1,4.5-7.3,8.6-8.6
		C433.8,528.3,430.6,525,429.3,520.9z"/>
	<path class="st1" d="M390,441.3c-1.3,4.1-4.5,7.3-8.6,8.6c4.1,1.3,7.3,4.5,8.6,8.6c1.3-4.1,4.5-7.3,8.6-8.6
		C394.5,448.6,391.3,445.4,390,441.3z"/>
	<g>
		<line class="st7" x1="460.5" y1="257.4" x2="448.7" y2="252.1"/>
		<line class="st7" x1="441.8" y1="218.1" x2="439.3" y2="235.6"/>
		<polyline class="st7" points="478.9,241.2 463.7,240.3 446.4,248.5 439.3,233.5 457.6,225 464.5,213.7 		"/>
		
			<rect x="444.3" y="225.7" transform="matrix(-0.4262 -0.9046 0.9046 -0.4262 431.5211 746.5917)" class="st8" width="16.5" height="21.4"/>
		<circle class="st9" cx="400" cy="261.2" r="45.1"/>
		<path class="st1" d="M393,237.4c14.5-4.4,29.6,1.7,37.3,13.9c0.7,1.2,1.5,1,1-0.4c-5.3-17.2-23.6-26.9-40.8-21.7
			c-17.2,5.3-26.9,23.6-21.7,40.8c0.4,1.4,1.1,1.1,1.1-0.3C369.4,255.3,378.5,241.8,393,237.4z"/>
		
			<rect x="441.5" y="232.9" transform="matrix(0.4262 0.9046 -0.9046 0.4262 468.8846 -268.3472)" class="st10" width="9" height="5"/>
		<path class="st1" d="M351.8,196.3c0,0,18.9-4.4,22.1-19.1c3.2-14.7-17-29.8-29.7-32.9c-12.7-3.1-33.4-2.3-39.9,19.8
			s17.8,37.3,37.2,34.2C341.4,198.3,354,202.9,351.8,196.3z"/>
		<path class="st10" d="M315.8,169c6.1-0.1,13.3,5.3,13.3,5.3c-4.7-6.8-4.8-14.8-4.6-17.4c0-0.4,0.5-0.6,0.8-0.3
			c5.8,5.1,8.5,13.4,8.5,13.4c0.7-9.8,5.5-16.4,7.1-18.4c0.2-0.3,0.7-0.2,0.8,0.1c2.6,8.3-1.6,19.6-1.6,19.6
			c6.8-7.2,12.3-9.3,14.4-9.9c0.4-0.1,0.7,0.3,0.5,0.6c-4.1,9.4-11.3,14.9-11.3,14.9c6.4-2.1,12.1-0.8,14.2-0.2
			c0.4,0.1,0.4,0.6,0.1,0.8c-7.6,5.5-14.6,4.5-14.6,4.5c4.3,2,7.2,4.7,8.4,5.9c0.3,0.3,0.1,0.8-0.3,0.8c-7.9-0.1-12.2-4.7-12.2-4.7
			c0.7,1.5,1,2.9,1.1,3.8c0.1,0.4-0.3,0.6-0.7,0.5c-3-1.5-4.2-2.9-4.8-3.7c-0.6,3.5-0.2,5.5-0.2,5.5l-1,0.2c0-0.1-0.5-2.3,0.3-6.2
			c-2.6,2.6-5.1,2.6-6.2,2.4c-0.3-0.1-0.5-0.4-0.3-0.7c1-1.7,3.2-2.7,3.2-2.7c-5,1.7-10.2,0.1-12.1-0.7c-0.4-0.1-0.4-0.6-0.1-0.8
			c3.5-1.9,8.7-2.7,8.7-2.7c-6.3-2.2-10.4-7.4-11.7-9.3C315.2,169.4,315.5,169,315.8,169z"/>
		<g>
			<path class="st1" d="M352.4,193.8c0,0.1,0-0.1,0,0.1c0,0.1,0,0.4,0,0.7c0,0.7,0.2,1.7,0.5,2.4c0.2,0.4,0.3,0.7,0.6,0.9
				c0.2,0.3,0.6,0.5,1.2,0.7c0.6,0.2,1.5,0.2,2.4,0.1c1-0.1,2-0.4,3-0.7c1.1-0.3,2.1-0.8,3.2-1.3l0.2-0.1l0,0l0,0l0.1-0.1l0,0l0.1,0
				l0.4-0.2c0.2-0.1,0.7-0.3,1.1-0.5c0.2-0.1,0.4-0.1,0.7-0.2c0.2-0.1,0.4-0.1,0.7-0.2c0.5-0.1,1.1-0.2,1.9,0
				c0.8,0.1,1.7,0.6,2.2,1.2c0.3,0.3,0.4,0.6,0.6,0.9c0.1,0.3,0.2,0.5,0.3,0.8c0.3,1,0.3,1.6,0.3,2.3c0,1.2-0.1,2.2-0.1,3
				c0,0.8,0.1,1.4,0.1,1.5c0,0.1,0,0.1,0.1,0.2c0.1,0,0.3,0.1,0.5,0.1c0.4,0,0.7-0.1,1-0.1c0.3-0.1,0.4-0.1,0.4-0.1l0.1,0
				c0.7-0.2,1.3,0.2,1.5,0.9c0.1,0.6-0.1,1.1-0.6,1.4c0,0-0.2,0.1-0.5,0.2c-0.3,0.2-0.8,0.4-1.5,0.5c-0.4,0.1-0.8,0.1-1.4,0.1
				c-0.6-0.1-1.3-0.3-1.8-0.8c-0.5-0.5-0.9-1.1-1.2-1.6c-0.2-0.6-0.4-1.1-0.5-1.6c-0.3-1.1-0.4-2.1-0.6-3.1c-0.1-0.5-0.3-0.9-0.4-1
				c0,0,0,0,0,0c0,0.1,0,0.1,0.1,0.2c0.1,0.1,0.2,0.2,0.3,0.3c0.2,0.1,0.2,0.1,0.4,0.2c0.4,0.1,0,0.1-0.2,0.4l-0.5,0.4l-0.4,0.3
				l-0.1,0.1l0,0c0,0,0.2-0.1,0.1,0l0,0l-0.1,0l-0.2,0.2c-1.1,0.8-2.2,1.6-3.4,2.4c-1.2,0.8-2.5,1.4-4,2c-1.4,0.5-3.1,0.9-4.8,1
				c-1.7,0.1-3.6-0.2-5.3-1c-1.7-0.7-3.1-1.9-4.1-3c-1-1.1-1.7-2.2-2.2-3.2c-0.5-1-0.9-1.9-1.1-2.6c-0.3-0.7-0.4-1.3-0.5-1.8
				c-0.1-0.4-0.2-0.9-0.2-0.8c-0.3-3.2,2-6,5.1-6.3C349.2,188.4,352.1,190.7,352.4,193.8z"/>
		</g>
	</g>
	<path class="st1" d="M276.5,116c-1.3,4.1-4.5,7.3-8.6,8.6c4.1,1.3,7.3,4.5,8.6,8.6c1.3-4.1,4.5-7.3,8.6-8.6
		C280.9,123.3,277.7,120.1,276.5,116z"/>
	<path class="st1" d="M140.8,339.8c-1.3,4.1-4.5,7.3-8.6,8.6c4.1,1.3,7.3,4.5,8.6,8.6c1.3-4.1,4.5-7.3,8.6-8.6
		C145.3,347.1,142,343.9,140.8,339.8z"/>
	<g>
		<path class="st8" d="M331.9,375L331.9,375c-1.1-3,1.5-6.8,1.5-6.8c-2.7-6.2-6.7-8.2-6.7-8.2c-1.9,0.9-3.9,0.7-5.5,0.4
			c2.4,3.1,4.5,6.2,4.5,6.2c-1.8-2.2-4.2-4.6-6.2-6.3c-0.2-0.2-0.4-0.4-0.7-0.6c-0.1-0.1-0.3-0.2-0.4-0.4l0,0
			c-13.4-11.4-31.3-17.5-50.1-15.3c-3.3,0.4-6.4,1-9.5,1.8l0,0c-6.2,1.6-10-2.5-10-2.5c-10.5,0.3-15.2,7-15.2,7
			c0.8,2.8,0.2,5.4-0.5,7.3c3.6-2.3,7-3.5,7-3.5c-3.2,1.8-6.4,4.5-8.3,6.3c0,0,0,0,0,0l0.1,0c-12.7,11.3-20.8,27.4-21.9,45l0-0.1
			c0,0,0,0.2,0,0.5c0,0.5-0.1,1-0.1,1.5c-0.1,2.2-0.5,5.7-1.7,8.4c-1.7,4.2-1.6,8.9-0.2,14.4c1.2,4.6,3.9,7.4,7.1,11
			c3.2,3.5,6.1,6,8.4,8.7l0,0c0.9,1.2,1.9,2.4,3,3.6c0,0,0,0,0,0c0,0,3.6,3.8,5,9c1.2,4.6,6.8,6.3,11.4,5.9c-3.9-2.4-6-5.5-6-5.5
			c1.5,1.1,3.4,2.4,5.1,3.3c0.4,0.2,0.7,0.4,1.1,0.7c1.2,0.7,2,1.1,2,1.1s0,0,0,0c11.3,5.9,24.4,8.7,38,7.2
			c36.2-4.1,62.2-36.7,58.2-72.9C340.1,392.2,336.8,383,331.9,375z"/>
		<path class="st11" d="M275.7,369.4c5-8.2,17.5-9.6,27.9-3.2c2.6,1.6,4.8,3.5,6.5,5.6c-1.1-5.9-5.2-11.8-11.6-15.7
			c-10.4-6.4-22.9-5-27.9,3.2c-3.8,6.2-2.2,14.4,3.3,20.8C273.3,376.3,273.8,372.6,275.7,369.4z"/>
		<path class="st12" d="M280.5,385.6c10.4,6.4,22.9,5,27.9-3.2c2-3.2,2.5-6.9,1.8-10.7c-1.8-2.1-4-4-6.5-5.6
			c-10.4-6.4-22.9-5-27.9,3.2c-2,3.2-2.5,6.9-1.8,10.7C275.7,382.1,277.9,384,280.5,385.6z"/>
		<path class="st11" d="M253.9,450.2c-3.3-9.6,3.9-18.1,16-19c3-0.2,6,0.1,8.9,0.7c-5.5-4.2-13-6.6-20.4-6.1
			c-12.1,0.8-19.3,9.3-16,19c2.5,7.3,10.2,13.1,19.1,15.1C257.9,457.4,255.2,454,253.9,450.2z"/>
		<path class="st12" d="M270.3,460.8c12.1-0.8,19.3-9.3,16-19c-1.3-3.8-4-7.1-7.5-9.8c-2.9-0.7-5.9-1-8.9-0.7
			c-12.1,0.8-19.3,9.3-16,19c1.3,3.8,4,7.1,7.5,9.8C264.3,460.7,267.3,461,270.3,460.8z"/>
		
			<ellipse transform="matrix(0.9317 -0.3633 0.3633 0.9317 -127.5889 124.1244)" class="st12" cx="266.2" cy="401.3" rx="8" ry="5.3"/>
		
			<ellipse transform="matrix(0.9938 -0.1114 0.1114 0.9938 -43.8515 26.7109)" class="st12" cx="217" cy="405.6" rx="2.2" ry="2.7"/>
		
			<ellipse transform="matrix(0.9938 -0.1114 0.1114 0.9938 -47.6729 36.7007)" class="st12" cx="304.5" cy="444.8" rx="3.5" ry="2.9"/>
		
			<ellipse transform="matrix(-0.9206 0.3905 -0.3905 -0.9206 784.35 616.5734)" class="st12" cx="329.5" cy="388" rx="4.3" ry="4.9"/>
		<path class="st11" d="M284.8,398c0,0,22.3,2,30.8-10.6C315.6,387.3,312.1,403.3,284.8,398z"/>
		<g>
			<path class="st11" d="M214.8,427.7c-1.2-4.1-1.3-8-0.5-10.4c-0.8-0.4-1.5-0.5-2.2-0.3c-2.8,0.8-3.5,6.6-1.6,12.9
				c1.9,6.3,5.7,10.8,8.4,9.9c1-0.3,1.7-1.2,2.1-2.5C218.7,436.1,216.2,432.4,214.8,427.7z"/>
			<path class="st12" d="M220.5,426.8c-1.4-4.7-3.9-8.4-6.2-9.6c-0.8,2.4-0.7,6.3,0.5,10.4c1.4,4.7,3.9,8.4,6.2,9.6
				C221.9,434.8,221.7,430.9,220.5,426.8z"/>
		</g>
		<g>
			<path class="st11" d="M325,423.2c0.7-2.3,2.2-3.9,3.8-4.3c-0.4-0.6-1-1.2-1.6-1.5c-2.5-1.4-5.4,0.3-6.5,3.9c-1.1,3.6,0,7.6,2.5,9
				c0.9,0.5,1.8,0.6,2.7,0.4C324.6,428.8,324.2,425.9,325,423.2z"/>
			<path class="st12" d="M329.7,426.4c0.8-2.7,0.4-5.6-0.9-7.5c-1.6,0.4-3.1,1.9-3.8,4.3c-0.8,2.7-0.4,5.6,0.9,7.5
				C327.5,430.3,329,428.8,329.7,426.4z"/>
		</g>
		<g>
			<path class="st11" d="M235.9,393.9c1.4-5.2,4.3-9.1,7.6-10.6c-0.9-1.2-2-2.2-3.2-2.7c-5-2.1-10.7,2.6-12.8,10.7
				c-2.1,8.1,0.2,16.3,5.2,18.5c1.7,0.7,3.6,0.6,5.3-0.1C235.2,406.1,234.3,399.9,235.9,393.9z"/>
			<path class="st12" d="M245.4,399.1c1.6-6,0.7-12.2-1.9-15.8c-3.2,1.5-6.2,5.3-7.6,10.6c-1.6,6-0.7,12.2,1.9,15.8
				C241.1,408.2,244,404.4,245.4,399.1z"/>
		</g>
		<path class="st11" d="M244.8,413.2c0,0,9.2-15.6,6.5-26.7C251.2,386.5,258.3,400.1,244.8,413.2z"/>
	</g>
</g>
</svg>
