<?xml version="1.0" encoding="utf-8"?>
<!-- Generator: Adobe Illustrator 19.1.0, SVG Export Plug-In . SVG Version: 6.00 Build 0)  -->
<svg version="1.1" id="Layer_1" xmlns="http://www.w3.org/2000/svg" xmlns:xlink="http://www.w3.org/1999/xlink" x="0px" y="0px"
	 viewBox="0 0 272 194" style="enable-background:new 0 0 272 194;" xml:space="preserve">
<style type="text/css">
	.st0{fill:none;stroke:#0071BC;stroke-width:6;stroke-linecap:round;stroke-linejoin:round;stroke-miterlimit:10;}
	.st1{fill:#0071BC;}
	.st2{fill:#8BC53F;}
	.st3{fill:#FFFFFF;}
	.st4{fill:#404041;}
	.st5{fill:none;stroke:#D73972;stroke-width:6;stroke-linecap:round;stroke-linejoin:round;stroke-miterlimit:10;}
	.st6{fill:#D73972;}
	.st7{fill:none;stroke:#662D91;stroke-width:6;stroke-linecap:round;stroke-linejoin:round;stroke-miterlimit:10;}
	.st8{fill:#662D91;}
	.st9{fill:#303F37;}
</style>
<g>
	<g>
		<g>
			<path class="st5" d="M118.7,105c0,0-0.5-7.5,4.9-9.6"/>
			<path class="st5" d="M148.1,105c0,0,0.5-7.5-4.9-9.6"/>
			<polyline class="st5" points="127.8,117.5 127.8,95.4 139,95.4 139,117.5 			"/>
			<rect x="127.8" y="95.4" class="st6" width="11.2" height="13.6"/>
			<circle class="st5" cx="133.4" cy="63.3" r="30.6"/>
			<path class="st2" d="M125.6,48.4c9-4.8,19.9-2.7,26.6,4.4c0.6,0.7,1.1,0.5,0.6-0.4c-5.8-10.8-19.2-14.9-30-9.1
				c-10.8,5.8-14.9,19.2-9.1,30c0.5,0.9,0.9,0.6,0.7-0.4C112.3,63.4,116.6,53.2,125.6,48.4z"/>
			<rect x="132.8" y="97.2" class="st3" width="6.1" height="3.4"/>
		</g>
		<path class="st2" d="M177.5,16c-1.9,6.2-6.7,11-12.9,12.9c6.2,1.9,11,6.7,12.9,12.9c1.9-6.2,6.7-11,12.9-12.9
			C184.2,27,179.4,22.1,177.5,16z"/>
		<path class="st2" d="M87.9,24.5c-1.3,4.1-4.5,7.3-8.6,8.6c4.1,1.3,7.3,4.5,8.6,8.6c1.3-4.1,4.5-7.3,8.6-8.6
			C92.4,31.9,89.2,28.7,87.9,24.5z"/>
		<path class="st2" d="M194.4,54.6c-1.3,4.1-4.5,7.3-8.6,8.6c4.1,1.3,7.3,4.5,8.6,8.6c1.3-4.1,4.5-7.3,8.6-8.6
			C198.8,61.9,195.6,58.7,194.4,54.6z"/>
		<path class="st2" d="M73.9,54.6c-1.9,6.2-6.7,11-12.9,12.9c6.2,1.9,11,6.7,12.9,12.9c1.9-6.2,6.7-11,12.9-12.9
			C80.6,65.6,75.8,60.8,73.9,54.6z"/>
	</g>
	<g>
		<path class="st4" d="M10.1,159.2c0-2.4,2-4.4,4.4-4.4c2.4,0,4.4,2,4.4,4.4v0.3c2-2.6,4.6-5,9-5c6.6,0,10.5,4.4,10.5,11.5v16
			c0,2.4-2,4.4-4.4,4.4c-2.4,0-4.4-2-4.4-4.4v-13.2c0-4.1-2-6.3-5.3-6.3s-5.5,2.1-5.5,6.3V182c0,2.4-2,4.4-4.4,4.4
			c-2.4,0-4.4-2-4.4-4.4V159.2z"/>
		<path class="st4" d="M73.6,182c0,2.4-2,4.4-4.4,4.4c-2.4,0-4.4-2-4.4-4.4v-0.3c-2,2.6-4.6,5-9,5c-6.6,0-10.5-4.4-10.5-11.5v-16
			c0-2.4,2-4.4,4.4-4.4c2.4,0,4.4,2,4.4,4.4v13.2c0,4.1,2,6.3,5.3,6.3s5.5-2.1,5.5-6.3v-13.2c0-2.4,2-4.4,4.4-4.4
			c2.4,0,4.4,2,4.4,4.4V182z"/>
		<path class="st4" d="M83.4,193.2c-1.5-0.6-2.5-1.8-2.5-3.4c0-2,1.6-3.6,3.6-3.6c0.6,0,1,0.1,1.4,0.3c2.5,1.2,5.2,1.8,8.5,1.8
			c6,0,8.8-2.9,8.8-8.4v-1.5c-2.6,3.1-5.4,5-10.1,5c-7.2,0-13.7-5.2-13.7-14.4V169c0-9.2,6.6-14.4,13.7-14.4c4.8,0,7.6,2,10,4.6
			v-0.1c0-2.4,2-4.3,4.4-4.3c2.4,0,4.4,2,4.4,4.4v19.9c0,5.5-1.3,9.6-3.9,12.2c-2.9,2.9-7.3,4.2-13.3,4.2
			C90.6,195.4,87,194.7,83.4,193.2z M103.3,169.1V169c0-4.2-3.3-7.1-7.5-7.1c-4.3,0-7.5,2.9-7.5,7.1v0.1c0,4.3,3.2,7.1,7.5,7.1
			C100,176.2,103.3,173.3,103.3,169.1z"/>
		<path class="st4" d="M150.3,182c0,2.4-2,4.4-4.4,4.4c-2.4,0-4.4-2-4.4-4.4v-0.4c-2.1,2.9-5.1,5-9.6,5c-7.2,0-14.1-5.6-14.1-16
			v-0.1c0-10.3,6.7-16,14.1-16c4.7,0,7.6,2.1,9.6,4.6V148c0-2.4,2-4.4,4.4-4.4c2.4,0,4.4,2,4.4,4.4V182z M126.7,170.5v0.1
			c0,5.1,3.5,8.5,7.5,8.5s7.5-3.4,7.5-8.5v-0.1c0-5.1-3.4-8.5-7.5-8.5S126.7,165.3,126.7,170.5z"/>
		<path class="st4" d="M172.3,186.7c-9.3,0-16.1-6.5-16.1-16v-0.1c0-8.8,6.3-16.1,15.3-16.1c10.3,0,14.9,8.5,14.9,14.9
			c0,2.5-1.8,4.2-4.1,4.2h-17.3c0.9,4,3.6,6.1,7.5,6.1c2.4,0,4.4-0.7,6.2-2.1c0.6-0.5,1.2-0.7,2.1-0.7c2,0,3.4,1.5,3.4,3.5
			c0,1.2-0.5,2-1.2,2.6C180.3,185.3,176.8,186.7,172.3,186.7z M177.9,168.2c-0.5-3.9-2.8-6.6-6.5-6.6c-3.6,0-6,2.6-6.7,6.6H177.9z"
			/>
		<path class="st4" d="M189.8,177.2V177c0-6.7,5.1-9.9,12.4-9.9c3.1,0,5.4,0.5,7.5,1.3v-0.5c0-3.6-2.2-5.6-6.6-5.6
			c-2.4,0-4.4,0.3-6.1,0.9c-0.5,0.2-0.9,0.2-1.3,0.2c-2,0-3.6-1.6-3.6-3.6c0-1.6,1-2.9,2.4-3.4c2.8-1,5.8-1.6,9.9-1.6
			c4.8,0,8.2,1.3,10.4,3.5c2.3,2.3,3.3,5.7,3.3,9.9v14.1c0,2.4-1.9,4.2-4.3,4.2c-2.5,0-4.2-1.8-4.2-3.6v-0.1
			c-2.1,2.4-5.1,3.9-9.3,3.9C194.6,186.6,189.8,183.3,189.8,177.2z M209.9,175.1v-1.6c-1.5-0.7-3.5-1.2-5.6-1.2
			c-3.7,0-6.1,1.5-6.1,4.3v0.1c0,2.4,2,3.7,4.8,3.7C207.2,180.6,209.9,178.3,209.9,175.1z"/>
		<path class="st4" d="M225.6,148c0-2.4,2-4.4,4.4-4.4c2.4,0,4.4,2,4.4,4.4v34c0,2.4-2,4.4-4.4,4.4c-2.4,0-4.4-2-4.4-4.4V148z"/>
		<path class="st4" d="M239.9,182.5v-0.2c0-1.7,0.6-2.8,2-4.3l14.4-15.8H244c-2,0-3.6-1.6-3.6-3.5c0-2,1.6-3.6,3.6-3.6h19.2
			c2.5,0,4.3,1.4,4.3,3.5v0.2c0,1.7-0.6,2.8-2,4.3L251.1,179h12.8c2,0,3.6,1.6,3.6,3.6c0,2-1.6,3.5-3.6,3.5h-19.7
			C241.7,186,239.9,184.6,239.9,182.5z"/>
	</g>
</g>
</svg>
